<?xml version="1.0" standalone="no"?>
<!DOCTYPE svg PUBLIC "-//W3C//DTD SVG 20010904//EN"
 "http://www.w3.org/TR/2001/REC-SVG-20010904/DTD/svg10.dtd">
<svg version="1.0" xmlns="http://www.w3.org/2000/svg"
 width="320.000000pt" height="320.000000pt" viewBox="0 0 320.000000 320.000000"
 preserveAspectRatio="xMidYMid meet">
<metadata>
Created by potrace 1.11, written by Peter Selinger 2001-2013
</metadata>
<g transform="translate(0.000000,320.000000) scale(0.100000,-0.100000)"
fill="#000000" stroke="none">
<path d="M532 2857 c-32 -34 -29 -79 7 -110 l30 -25 8 -245 8 -246 -104 -45
-105 -46 -21 20 c-47 44 -125 9 -125 -56 0 -39 36 -74 76 -74 28 0 33 -8 166
-273 l136 -274 8 -141 c7 -137 6 -142 -13 -142 -29 0 -63 -41 -63 -76 0 -60
78 -97 121 -58 17 16 24 14 105 -22 l86 -39 110 -220 c91 -180 108 -222 99
-237 -31 -50 7 -118 65 -118 30 0 74 34 74 57 0 10 391 143 419 143 6 0 67
-28 136 -62 120 -60 125 -64 125 -94 0 -65 84 -98 128 -51 26 27 29 79 7 97
-8 7 -15 17 -15 22 0 5 25 64 55 131 l55 122 366 119 365 118 23 -21 c30 -28
77 -27 104 2 29 31 29 77 -1 105 -24 23 -76 29 -93 12 -6 -6 -80 69 -212 214
l-202 224 54 119 c52 114 55 118 87 121 72 7 105 84 56 130 -29 27 -78 29
-101 3 -16 -18 -27 -14 -352 133 l-336 152 -165 183 c-146 161 -165 186 -155
202 49 78 -55 161 -118 94 -18 -19 -22 -32 -18 -63 l6 -38 -95 -42 c-51 -23
-97 -42 -101 -42 -4 0 -131 56 -282 124 -275 125 -275 125 -278 158 -7 71 -84
104 -130 55z m88 -37 c12 -23 3 -31 -25 -20 -20 8 -24 6 -27 -13 l-3 -22 -13
22 c-11 19 -10 25 8 43 21 21 45 18 60 -10z m282 -233 c126 -56 228 -104 228
-107 0 -3 -108 -53 -240 -111 l-240 -107 0 52 c0 29 -3 129 -7 221 -6 163 -6
168 13 161 10 -4 121 -53 246 -109z m618 84 c12 -24 0 -37 -36 -39 -40 -3 -51
21 -24 48 21 21 45 18 60 -9z m119 -289 c40 -45 71 -82 69 -82 -6 0 -349 154
-379 170 -20 11 -16 15 62 50 l84 38 45 -47 c25 -26 78 -84 119 -129z m-109
-77 l292 -130 266 -295 c147 -162 273 -302 279 -311 11 -13 -13 -73 -143 -360
-85 -189 -161 -349 -167 -355 -12 -12 -404 -144 -428 -144 -8 0 -175 77 -372
172 l-359 173 -109 218 -109 218 -10 252 c-5 139 -10 296 -11 350 l-2 99 274
123 c151 68 282 123 291 122 9 -1 148 -60 308 -132z m-932 -515 l1 -135 -104
205 c-57 113 -100 208 -97 212 4 4 48 25 97 47 l90 40 6 -117 c4 -64 7 -178 7
-252z m-276 327 c-17 -8 -20 -15 -15 -35 5 -22 4 -23 -14 -13 -31 16 -35 39
-13 61 17 17 24 19 43 9 l22 -12 -23 -10z m1939 -143 l257 -116 -52 -114 c-28
-63 -54 -113 -58 -111 -11 3 -419 457 -412 457 4 0 123 -52 265 -116z m380
-75 c7 -14 5 -23 -11 -39 -24 -24 -40 -19 -33 11 4 12 0 25 -8 30 -12 8 -12
10 0 18 18 12 39 4 52 -20z m17 -649 c77 -85 137 -158 134 -161 -9 -9 -633
-211 -637 -207 -2 2 50 123 116 268 66 146 129 285 140 309 l19 43 44 -48 c24
-27 107 -119 184 -204z m-1869 -132 c1 -4 -21 3 -49 15 l-50 22 0 65 c0 36 -3
76 -6 90 -3 14 20 -22 50 -80 30 -58 55 -108 55 -112z m-156 -10 c19 -12 -13
-29 -34 -18 -28 15 -30 39 -6 63 l22 22 3 -30 c2 -16 9 -33 15 -37z m2318 -29
c7 -14 5 -23 -11 -39 -17 -17 -24 -19 -43 -8 -19 10 -20 13 -4 16 19 4 23 27
6 38 -8 4 -7 9 2 14 16 11 37 2 50 -21z m-1695 -271 l276 -133 -176 -57 c-165
-54 -178 -57 -200 -43 -29 19 -217 381 -193 372 9 -3 141 -66 293 -139z m745
-90 c-50 -115 -70 -158 -75 -158 -3 0 -53 24 -111 52 l-105 53 142 46 c79 26
148 47 155 48 9 1 7 -12 -6 -41z m-863 -242 c13 5 14 4 3 -4 -8 -6 -20 -8 -28
-5 -17 7 -34 38 -26 47 4 4 13 -5 20 -18 9 -17 19 -23 31 -20z m856 9 c9 -24
-30 -58 -53 -46 -21 12 -34 38 -23 45 5 3 14 1 22 -5 21 -13 30 -11 30 6 0 20
16 19 24 0z"/>
</g>
</svg>
