<svg xmlns="http://www.w3.org/2000/svg" width="329.883" height="28.086" viewBox="0 0 329.883 28.086">
  <path id="パス_1" data-name="パス 1" d="M34.758,15.648,31.828,36H29.5L24.719,24.477,19.914,36H17.59L14.719,15.648h3.027q1.621,14.258,1.68,14.961l3.73-8.848h3.125l3.711,8.789,1.641-14.9ZM56.281,35.316a13.912,13.912,0,0,1-5.84,1.211,10.244,10.244,0,0,1-7.666-2.92,10.614,10.614,0,0,1-2.861-7.764,10.573,10.573,0,0,1,2.881-7.764,10.159,10.159,0,0,1,7.568-2.92,16.027,16.027,0,0,1,5.84,1.074l-.8,2.52a15.507,15.507,0,0,0-5-.957,6.822,6.822,0,0,0-5.322,2.168,8.43,8.43,0,0,0-1.963,5.879,8.351,8.351,0,0,0,2.031,5.713,6.709,6.709,0,0,0,5.293,2.314,15.476,15.476,0,0,0,5.313-1ZM80.871,36H77.844a11.726,11.726,0,0,1-.371-3.281,8.131,8.131,0,0,1-7.07,3.809,5.682,5.682,0,0,1-3.994-1.611,5.419,5.419,0,0,1-1.729-4.15,5.627,5.627,0,0,1,.605-2.656,5.32,5.32,0,0,1,1.777-1.943,9.579,9.579,0,0,1,2.852-1.25,21.471,21.471,0,0,1,3.984-.635l3.418-.273v-.977q0-5.234-4.883-5.234a11.217,11.217,0,0,0-2.92.5,15.01,15.01,0,0,0-3.037,1.182l-.8-2.187A17.116,17.116,0,0,1,73.41,15.16q6.953,0,6.953,7.363v8.75A19.92,19.92,0,0,0,80.871,36Zm-3.555-6.035V26.273q-4.121.371-5.654.693a6.365,6.365,0,0,0-2.656,1.2,2.865,2.865,0,0,0-1.123,2.383,2.8,2.8,0,0,0,.957,2.207,3.566,3.566,0,0,0,2.441.84,6.183,6.183,0,0,0,3.223-.967A9.475,9.475,0,0,0,77.316,29.965Zm24.766-3.477H90.48V23.52h11.6Zm26.6-10.293-1.23,2.93a8.949,8.949,0,0,0-3.477-.879,5.076,5.076,0,0,0-2.637.771,8.45,8.45,0,0,0-2.373,2.207,7.91,7.91,0,0,0-1.084,1.611V36h-3.027V15.648h3.027V19.77q2.441-4.609,6.328-4.609A10.268,10.268,0,0,1,128.684,16.2Zm24.2,19.8h-3.027a11.726,11.726,0,0,1-.371-3.281,8.131,8.131,0,0,1-7.07,3.809,5.682,5.682,0,0,1-3.994-1.611,5.419,5.419,0,0,1-1.729-4.15,5.628,5.628,0,0,1,.605-2.656,5.32,5.32,0,0,1,1.777-1.943,9.578,9.578,0,0,1,2.852-1.25,21.471,21.471,0,0,1,3.984-.635l3.418-.273v-.977q0-5.234-4.883-5.234a11.217,11.217,0,0,0-2.92.5,15.01,15.01,0,0,0-3.037,1.182l-.8-2.187a17.116,17.116,0,0,1,7.734-2.129q6.953,0,6.953,7.363v8.75A19.92,19.92,0,0,0,152.883,36Zm-3.555-6.035V26.273q-4.121.371-5.654.693a6.365,6.365,0,0,0-2.656,1.2,2.865,2.865,0,0,0-1.123,2.383,2.8,2.8,0,0,0,.957,2.207,3.566,3.566,0,0,0,2.441.84,6.183,6.183,0,0,0,3.223-.967A9.475,9.475,0,0,0,149.328,29.965ZM176.3,36h-3.047V33.07a7.239,7.239,0,0,1-2.686,2.48,7.44,7.44,0,0,1-3.682.977,6.29,6.29,0,0,1-5.527-3.115,14.2,14.2,0,0,1-2.031-7.9,12.353,12.353,0,0,1,2.119-7.412,6.6,6.6,0,0,1,5.615-2.939,7.369,7.369,0,0,1,6.191,3.125V8.441H176.3Zm-3.047-6.23V21.313Q171.066,17.8,167.98,17.8A4.539,4.539,0,0,0,164,20.033a10.122,10.122,0,0,0-1.465,5.654,11.143,11.143,0,0,0,1.377,5.811,4.227,4.227,0,0,0,3.779,2.295,4.908,4.908,0,0,0,2.324-.625,7.475,7.475,0,0,0,2.207-1.875A4.784,4.784,0,0,0,173.254,29.77ZM200.891,36h-3.027a11.726,11.726,0,0,1-.371-3.281,8.131,8.131,0,0,1-7.07,3.809,5.682,5.682,0,0,1-3.994-1.611,5.419,5.419,0,0,1-1.729-4.15,5.628,5.628,0,0,1,.605-2.656,5.32,5.32,0,0,1,1.777-1.943,9.578,9.578,0,0,1,2.852-1.25,21.471,21.471,0,0,1,3.984-.635l3.418-.273v-.977q0-5.234-4.883-5.234a11.217,11.217,0,0,0-2.92.5,15.01,15.01,0,0,0-3.037,1.182l-.8-2.187a17.116,17.116,0,0,1,7.734-2.129q6.953,0,6.953,7.363v8.75A19.92,19.92,0,0,0,200.891,36Zm-3.555-6.035V26.273q-4.121.371-5.654.693a6.365,6.365,0,0,0-2.656,1.2,2.865,2.865,0,0,0-1.123,2.383,2.8,2.8,0,0,0,.957,2.207,3.566,3.566,0,0,0,2.441.84,6.183,6.183,0,0,0,3.223-.967A9.475,9.475,0,0,0,197.336,29.965ZM224.7,16.2l-1.23,2.93a8.949,8.949,0,0,0-3.477-.879,5.076,5.076,0,0,0-2.637.771,8.45,8.45,0,0,0-2.373,2.207,7.91,7.91,0,0,0-1.084,1.611V36h-3.027V15.648H213.9V19.77q2.441-4.609,6.328-4.609A10.268,10.268,0,0,1,224.7,16.2Zm23.613,19.121a13.912,13.912,0,0,1-5.84,1.211,10.244,10.244,0,0,1-7.666-2.92,10.614,10.614,0,0,1-2.861-7.764,10.573,10.573,0,0,1,2.881-7.764,10.159,10.159,0,0,1,7.568-2.92,16.027,16.027,0,0,1,5.84,1.074l-.8,2.52a15.507,15.507,0,0,0-5-.957,6.822,6.822,0,0,0-5.322,2.168,8.43,8.43,0,0,0-1.963,5.879,8.351,8.351,0,0,0,2.031,5.713,6.709,6.709,0,0,0,5.293,2.314,15.476,15.476,0,0,0,5.313-1ZM272.395,36h-3.047V22.953a6.918,6.918,0,0,0-.869-3.936,3.115,3.115,0,0,0-2.725-1.221q-2.793,0-6,3.477V36h-3.047V8.441h3.047v10.2q3.281-3.477,6.914-3.477,5.723,0,5.723,6.914Zm24.512,0h-3.027a11.725,11.725,0,0,1-.371-3.281,8.131,8.131,0,0,1-7.07,3.809,5.682,5.682,0,0,1-3.994-1.611,5.419,5.419,0,0,1-1.729-4.15,5.627,5.627,0,0,1,.605-2.656,5.32,5.32,0,0,1,1.777-1.943,9.579,9.579,0,0,1,2.852-1.25,21.471,21.471,0,0,1,3.984-.635l3.418-.273v-.977q0-5.234-4.883-5.234a11.217,11.217,0,0,0-2.92.5,15.01,15.01,0,0,0-3.037,1.182l-.8-2.187a17.116,17.116,0,0,1,7.734-2.129q6.953,0,6.953,7.363v8.75A19.921,19.921,0,0,0,296.906,36Zm-3.555-6.035V26.273q-4.121.371-5.654.693a6.365,6.365,0,0,0-2.656,1.2,2.865,2.865,0,0,0-1.123,2.383,2.8,2.8,0,0,0,.957,2.207,3.566,3.566,0,0,0,2.441.84,6.183,6.183,0,0,0,3.223-.967A9.475,9.475,0,0,0,293.352,29.965ZM320.715,16.2l-1.23,2.93a8.949,8.949,0,0,0-3.477-.879,5.076,5.076,0,0,0-2.637.771A8.45,8.45,0,0,0,311,21.225a7.91,7.91,0,0,0-1.084,1.611V36h-3.027V15.648h3.027V19.77q2.441-4.609,6.328-4.609A10.268,10.268,0,0,1,320.715,16.2ZM344.6,35.082a14.4,14.4,0,0,1-6.035,1.406q-5.449,0-5.449-5.762V18.285h-3.906V15.648h3.906V10.082h2.969v5.566H343v2.637h-6.914V29.926a4.5,4.5,0,0,0,.82,2.881,2.7,2.7,0,0,0,2.227,1.025,11.807,11.807,0,0,0,4.941-1.113Z" transform="translate(-14.719 -8.441)" fill="#fff"/>
</svg>
